{"title":"Fantastic Four 2015 TS x264-MenaceIISociety","uid":12217599,"size":1252176553,"categoryP":"video","categoryS":"movies","magnet":"?xt=urn:btih:69c6882d23359779922c0f4d33a4f197704f31ba&amp;dn=Fantastic+Four+2015+TS+x264-MenaceIISociety&amp;tr=udp%3A%2F%2Ftracker.openbittorrent.com%3A80&amp;tr=udp%3A%2F%2Fopen.demonii.com%3A1337&amp;tr=udp%3A%2F%2Ftracker.coppersurfer.tk%3A6969&amp;tr=udp%3A%2F%2Fexodus.desync.com%3A6969","seeders":15,"leechers":1,"uploader":"SS132203","files":4,"time":1439273139,"description":"Fantastic Four 2015 TS x264-MenaceIISociety\n &lt;a href=&quot;\nhttp://imgsparrow.co/image/89k&quot; rel=&quot;nofollow&quot; target=&quot;_NEW&quot;&gt;\nhttp://imgsparrow.co/image/89k&lt;/a&gt;\n &lt;a href=&quot;\nhttp://imgsparrow.co/image/9b&quot; rel=&quot;nofollow&quot; target=&quot;_NEW&quot;&gt;\nhttp://imgsparrow.co/image/9b&lt;/a&gt;\n\nInfo : - \n\nThank MenaceIISociety Not ME!\n\nPlease Support The Filmmakers\nDon't Just Download Go Watch In Theater Also\n\nFantastic.Four.2015.TS.x264-MenaceIISociety\n &lt;a href=&quot;\nhttp://www.imdb.com/title/tt1502712/&quot; rel=&quot;nofollow&quot; target=&quot;_NEW&quot;&gt;\nhttp://www.imdb.com/title/tt1502712/&lt;/a&gt;\n\nSource: latin / Hive-CM8 [THANKS]\n\n\nNOTE: fixed perspective better mainly bottom right/top left its near on straight now.\n\nGeneral\nComplete name                            : Fantastic.Four.2015.TS.x264-MenaceIISociety.avi\nFormat                                   : AVI\nFormat/Info                              : Audio Video Interleave\nFile size                                : 1.13 GiB\nDuration                                 : 1h 32mn\nOverall bit rate                         : 1 748 Kbps\n\nVideo\nID                                       : 0\nFormat                                   : MPEG-4 Visual\nFormat profile                           : Advanced Simple@L5\nFormat settings, BVOP                    : 2\nFormat settings, QPel                    : No\nFormat settings, GMC                     : No warppoints\nFormat settings, Matrix                  : Default (H.263)\nMuxing mode                              : Packed bitstream\nCodec ID                                 : XVID\nCodec ID/Hint                            : XviD\nDuration                                 : 1h 32mn\nBit rate                                 : 1 419 Kbps\nWidth                                    : 720 pixels\nHeight                                   : 272 pixels\nDisplay aspect ratio                     : 2.647\nFrame rate                               : 29.970 fps\nColor space                              : YUV\nChroma subsampling                       : 4:2:0\nBit depth                                : 8 bits\nScan type                                : Progressive\nCompression mode                         : Lossy\nBits/(Pixel*Frame)                       : 0.242\nStream size                              : 939 MiB (81%)\nWriting library                          : XviD 73\n\nAudio\nID                                       : 1\nFormat                                   : AC-3\nFormat/Info                              : Audio Coding 3\nMode extension                           : CM (complete main)\nFormat settings, Endianness              : Big\nCodec ID                                 : 2000\nDuration                                 : 1h 32mn\nBit rate mode                            : Constant\nBit rate                                 : 320 Kbps\nChannel(s)                               : 2 channels\nChannel positions                        : Front: L R\nSampling rate                            : 48.0 KHz\nCompression mode                         : Lossy\nStream size                              : 212 MiB (18%)\nAlignment                                : Aligned on interleaves\nInterleave, duration                     : 64 ms (1.92 video frames)\nInterleave, preload duration             : 192 ms\n\nScreens : - \n &lt;a href=&quot;\nhttp://imgsparrow.co/image/8uH&quot; rel=&quot;nofollow&quot; target=&quot;_NEW&quot;&gt;\nhttp://imgsparrow.co/image/8uH&lt;/a&gt; &lt;a href=&quot;\nhttp://imgsparrow.co/image/8uT&quot; rel=&quot;nofollow&quot; target=&quot;_NEW&quot;&gt;\nhttp://imgsparrow.co/image/8uT&lt;/a&gt; &lt;a href=&quot;\nhttp://imgsparrow.co/image/8ub&quot; rel=&quot;nofollow&quot; target=&quot;_NEW&quot;&gt;\nhttp://imgsparrow.co/image/8ub&lt;/a&gt; &lt;a href=&quot;\nhttp://imgsparrow.co/image/8uh&quot; rel=&quot;nofollow&quot; target=&quot;_NEW&quot;&gt;\nhttp://imgsparrow.co/image/8uh&lt;/a&gt; &lt;a href=&quot;\nhttp://imgsparrow.co/image/8uj&quot; rel=&quot;nofollow&quot; target=&quot;_NEW&quot;&gt;\nhttp://imgsparrow.co/image/8uj&lt;/a&gt; &lt;a href=&quot;\nhttp://imgsparrow.co/image/8ur&quot; rel=&quot;nofollow&quot; target=&quot;_NEW&quot;&gt;\nhttp://imgsparrow.co/image/8ur&lt;/a&gt; &lt;a href=&quot;\nhttp://imgsparrow.co/image/8uD&quot; rel=&quot;nofollow&quot; target=&quot;_NEW&quot;&gt;\nhttp://imgsparrow.co/image/8uD&lt;/a&gt; &lt;a href=&quot;\nhttp://imgsparrow.co/image/8uG&quot; rel=&quot;nofollow&quot; target=&quot;_NEW&quot;&gt;\nhttp://imgsparrow.co/image/8uG&lt;/a&gt; &lt;a href=&quot;\nhttp://imgsparrow.co/image/8ue&quot; rel=&quot;nofollow&quot; target=&quot;_NEW&quot;&gt;\nhttp://imgsparrow.co/image/8ue&lt;/a&gt;\n &lt;a href=&quot;\nhttp://imgsparrow.co/image/N2&quot; rel=&quot;nofollow&quot; target=&quot;_NEW&quot;&gt;\nhttp://imgsparrow.co/image/N2&lt;/a&gt;","torrent":{"xt":"urn:btih:69c6882d23359779922c0f4d33a4f197704f31ba","amp;dn":"Fantastic+Four+2015+TS+x264-MenaceIISociety","amp;tr":["udp%3A%2F%2Ftracker.openbittorrent.com%3A80","udp%3A%2F%2Fopen.demonii.com%3A1337","udp%3A%2F%2Ftracker.coppersurfer.tk%3A6969","udp%3A%2F%2Fexodus.desync.com%3A6969"],"infoHash":"69c6882d23359779922c0f4d33a4f197704f31ba","infoHashBuffer":{"type":"Buffer","data":[105,198,136,45,35,53,151,121,146,44,15,77,51,164,241,151,112,79,49,186]},"announce":[],"urlList":[]}}